<?xml version="1.0" encoding="utf-8"?>
<!-- Generator: Adobe Illustrator 19.0.0, SVG Export Plug-In . SVG Version: 6.00 Build 0)  -->
<svg version="1.1" id="Capa_1" xmlns="http://www.w3.org/2000/svg" xmlns:xlink="http://www.w3.org/1999/xlink" x="0px" y="0px"
	 viewBox="-32 38 135 125" style="enable-background:new -32 38 135 125;" xml:space="preserve">
<style type="text/css">
	.st0{fill:#D0E4E9;}
	.st1{fill:none;stroke:#167A92;stroke-linecap:round;stroke-linejoin:round;}
	.st2{fill:#FDFDF9;stroke:#167A92;stroke-linecap:round;stroke-linejoin:round;}
	.st3{fill:#167A92;}
	.st4{fill:#FFFFFF;stroke:#167A92;stroke-linecap:round;stroke-linejoin:round;}
	.st5{fill:#CFCFCF;}
</style>
<path class="st0" d="M55.5,85.9c-8.4,0-16.9-0.3-24.9-2.6c-7.8-2.2-15-6.4-21.4-11.2C5,69,1.2,66.4-4.2,66.8
	c-5.3,0.3-10.4,2.3-14.5,5.7c-6.9,6.1-5.9,17.3-3.1,25.2c4.2,11.9,16.8,20.1,27.6,25.5c12.4,6.2,26.1,9.8,39.8,11.9
	c12,1.8,27.4,3.1,37.8-4.7c9.5-7.2,12.2-23.7,9.8-34.8c-0.6-3.3-2.3-6.2-4.9-8.3c-6.7-4.9-16.7-1.6-24.3-1.5
	C61.2,85.8,58.3,85.9,55.5,85.9z"/>
<path class="st0" d="M35.4,154.5c20.3,0,36.7-1,36.7-2.3c0-1.3-16.4-2.3-36.7-2.3c-20.3,0-36.7,1-36.7,2.3
	C-1.3,153.4,15.1,154.5,35.4,154.5z"/>
<path class="st1" d="M-16.4,64.1l13-1.1c1.6-0.1,3.2,0.3,4.6,1.2C2.5,65.1,3.5,66.5,4,68l12.5,41.7l-2.4,4.4
	c-0.6,1.1-0.9,2.4-0.9,3.7c0,1.3,0.4,2.5,1.1,3.6s1.7,2,2.8,2.5c1.2,0.6,2.4,0.8,3.7,0.7l49.9-4.2"/>
<path class="st2" d="M5.8,74.4l58-4.9c0.6,0,1.1,0,1.7,0.2c0.5,0.2,1,0.5,1.4,0.9c0.4,0.4,0.7,0.9,0.9,1.5c0.2,0.5,0.2,1.1,0.1,1.7
	L64,102.1c-0.1,0.9-0.5,1.6-1.1,2.2c-0.6,0.6-1.4,1-2.3,1l-44.2,4.3L5.8,74.4z"/>
<path class="st2" d="M26.3,134.2c2.6,0,4.7-2.1,4.7-4.7c0-2.6-2.1-4.7-4.7-4.7c-2.6,0-4.7,2.1-4.7,4.7
	C21.6,132.1,23.7,134.2,26.3,134.2z"/>
<path class="st2" d="M59.1,131.4c2.6,0,4.7-2.1,4.7-4.7c0-2.6-2.1-4.7-4.7-4.7c-2.6,0-4.7,2.1-4.7,4.7
	C54.4,129.3,56.5,131.4,59.1,131.4z"/>
<path class="st0" d="M-6.1,61.9l-12.3,1c-1.1,0.1-1.9,1-1.8,2.1c0.1,1.1,1,1.9,2.1,1.8l12.3-1c1.1-0.1,1.9-1,1.8-2.1
	C-4.1,62.6-5.1,61.8-6.1,61.9z"/>
<path class="st1" d="M30.3,96.3c0.2-1.8,1.1-3.5,2.4-4.8c1.3-1.3,3.1-2.1,4.9-2.2c1.8-0.2,3.7,0.3,5.2,1.3c1.5,1,2.7,2.5,3.2,4.3"/>
<path class="st3" d="M46.1,85.5c0.6,0,1.1-0.5,1.1-1.1c0-0.6-0.5-1.1-1.1-1.1c-0.6,0-1.1,0.5-1.1,1.1C45,85,45.5,85.5,46.1,85.5z"/>
<path class="st3" d="M28.4,87c0.6,0,1.1-0.5,1.1-1.1c0-0.6-0.5-1.1-1.1-1.1c-0.6,0-1.1,0.5-1.1,1.1C27.2,86.5,27.7,87,28.4,87z"/>
<path class="st1" d="M-3.2,128.1v4.3"/>
<path class="st1" d="M-5.3,130.3H-1"/>
<path class="st1" d="M65.5,48v4.3"/>
<path class="st1" d="M63.4,50.2h4.3"/>
<path class="st1" d="M14.6,60.8v4.3"/>
<path class="st1" d="M12.4,63h4.3"/>
<path class="st4" d="M76.2,76.7c0.6,0,1-0.5,1-1s-0.5-1-1-1c-0.6,0-1,0.5-1,1S75.7,76.7,76.2,76.7z"/>
<path class="st3" d="M38.1,67.5c0.5,0,1-0.4,1-1c0-0.5-0.4-1-1-1c-0.5,0-1,0.4-1,1C37.1,67.1,37.6,67.5,38.1,67.5z"/>
<path class="st5" d="M44.7,138.6c0.5,0,1-0.4,1-1c0-0.5-0.4-1-1-1s-1,0.4-1,1C43.7,138.2,44.2,138.6,44.7,138.6z"/>
</svg>
