<svg width="166" height="135" viewBox="0 0 166 135" fill="none" xmlns="http://www.w3.org/2000/svg">
<path d="M103.456 56.7801C95.0762 56.7801 86.5662 56.4401 78.5962 54.2201C70.7762 52.0501 63.5962 47.8401 57.1962 42.9701C52.9962 39.8001 49.1962 37.2701 43.7462 37.6501C38.4235 37.9452 33.3366 39.9435 29.2362 43.3501C22.3062 49.4101 23.3562 60.6201 26.1162 68.5001C30.2862 80.3701 42.9362 88.6201 53.7062 93.9901C66.1362 100.2 79.7862 103.78 93.4862 105.88C105.486 107.71 120.896 109.03 131.296 101.2C140.856 94.0001 143.476 77.5501 141.136 66.4501C140.565 63.1698 138.815 60.2111 136.216 58.1301C129.506 53.2201 119.496 56.5001 111.956 56.6601C109.156 56.7801 106.316 56.7801 103.456 56.7801Z" fill="#D0E4E9"/>
<path d="M82.9661 125.34C103.24 125.34 119.676 124.315 119.676 123.05C119.676 121.785 103.24 120.76 82.9661 120.76C62.6917 120.76 46.2561 121.785 46.2561 123.05C46.2561 124.315 62.6917 125.34 82.9661 125.34Z" fill="#D0E4E9"/>
<path d="M101.776 11.96C102.317 11.96 102.756 11.5212 102.756 10.98C102.756 10.4388 102.317 10 101.776 10C101.235 10 100.796 10.4388 100.796 10.98C100.796 11.5212 101.235 11.96 101.776 11.96Z" fill="#167A92"/>
<path d="M56.9861 107.07C57.5273 107.07 57.9661 106.631 57.9661 106.09C57.9661 105.549 57.5273 105.11 56.9861 105.11C56.4449 105.11 56.0061 105.549 56.0061 106.09C56.0061 106.631 56.4449 107.07 56.9861 107.07Z" fill="#167A92"/>
<path d="M113.326 112.08V116.38" stroke="#167A92" stroke-linecap="round" stroke-linejoin="round"/>
<path d="M111.166 114.23H115.476" stroke="#167A92" stroke-linecap="round" stroke-linejoin="round"/>
<path d="M39.0662 23.0701V27.3701" stroke="#167A92" stroke-linecap="round" stroke-linejoin="round"/>
<path d="M36.9061 25.22H41.2161" stroke="#167A92" stroke-linecap="round" stroke-linejoin="round"/>
<path d="M128.586 34.77V39.07" stroke="#167A92" stroke-linecap="round" stroke-linejoin="round"/>
<path d="M126.426 36.92H130.736" stroke="#167A92" stroke-linecap="round" stroke-linejoin="round"/>
<path d="M81.3861 15.66C70.7774 15.66 60.6033 19.8743 53.1018 27.3758C45.6004 34.8772 41.3861 45.0514 41.3861 55.66C41.3861 85.02 81.3861 112.51 81.3861 112.51C81.3861 112.51 121.386 85.44 121.386 55.66C121.386 45.0514 117.172 34.8772 109.67 27.3758C102.169 19.8743 91.9948 15.66 81.3861 15.66ZM81.3861 70.66C78.2708 70.66 75.2253 69.7367 72.6345 68.0068C70.0437 66.2768 68.0236 63.8178 66.8296 60.9403C65.6356 58.0629 65.3212 54.8961 65.9261 51.8401C66.5309 48.7841 68.028 45.9758 70.228 43.7702C72.4281 41.5645 75.2325 40.0604 78.287 39.4478C81.3415 38.8351 84.5091 39.1415 87.3895 40.3282C90.27 41.515 92.7341 43.5287 94.4706 46.1152C96.2072 48.7016 97.1382 51.7447 97.1461 54.86C97.1435 59.039 95.4822 63.0461 92.5272 66.0011C89.5722 68.9561 85.5651 70.6174 81.3861 70.62V70.66Z" fill="white" stroke="#167A92" stroke-linecap="round" stroke-linejoin="round"/>
<path d="M86.6962 49.01L76.0762 59.64" stroke="#167A92" stroke-linecap="round" stroke-linejoin="round"/>
<path d="M76.0762 49.01L86.6962 59.64" stroke="#167A92" stroke-linecap="round" stroke-linejoin="round"/>
</svg>
